<svg width="128" height="128" viewBox="0 0 128 128" fill="none" xmlns="http://www.w3.org/2000/svg">
<path d="M70.3079 25.088C50.1351 31.8157 38.2311 28.0525 30.8327 25.088C6.15435 15.2269 3.68651 101.581 43.1617 108.979C82.6369 116.383 112.246 76.9075 114.714 54.7072C117.176 32.4966 109.778 25.0982 102.375 20.1626C94.9761 15.2269 85.1047 20.1626 70.3028 25.0982L70.3079 25.088Z" fill="#4EDE79"/>
<path fill-rule="evenodd" clip-rule="evenodd" d="M10.2402 33.28C10.2402 32.601 10.5099 31.9499 10.99 31.4698C11.4701 30.9897 12.1213 30.72 12.8002 30.72H115.2C115.879 30.72 116.53 30.9897 117.01 31.4698C117.491 31.9499 117.76 32.601 117.76 33.28V115.2C117.76 115.879 117.491 116.53 117.01 117.01C116.53 117.49 115.879 117.76 115.2 117.76H12.8002C12.1213 117.76 11.4701 117.49 10.99 117.01C10.5099 116.53 10.2402 115.879 10.2402 115.2V33.28ZM15.3602 35.84V112.64H112.64V35.84H15.3602Z" fill="black"/>
<path fill-rule="evenodd" clip-rule="evenodd" d="M10.2402 12.8C10.2402 12.1211 10.5099 11.4699 10.99 10.9898C11.4701 10.5097 12.1213 10.24 12.8002 10.24H115.2C115.879 10.24 116.53 10.5097 117.01 10.9898C117.491 11.4699 117.76 12.1211 117.76 12.8V33.28C117.76 33.959 117.491 34.6101 117.01 35.0902C116.53 35.5703 115.879 35.84 115.2 35.84H12.8002C12.1213 35.84 11.4701 35.5703 10.99 35.0902C10.5099 34.6101 10.2402 33.959 10.2402 33.28V12.8ZM15.3602 15.36V30.72H112.64V15.36H15.3602Z" fill="black"/>
<path fill-rule="evenodd" clip-rule="evenodd" d="M25.6 10.24C26.279 10.24 26.9301 10.5097 27.4102 10.9898C27.8903 11.4699 28.16 12.1211 28.16 12.8V23.04C28.16 23.719 27.8903 24.3701 27.4102 24.8502C26.9301 25.3303 26.279 25.6 25.6 25.6C24.9211 25.6 24.2699 25.3303 23.7898 24.8502C23.3098 24.3701 23.04 23.719 23.04 23.04V12.8C23.04 12.1211 23.3098 11.4699 23.7898 10.9898C24.2699 10.5097 24.9211 10.24 25.6 10.24ZM38.4 10.24C39.079 10.24 39.7301 10.5097 40.2102 10.9898C40.6903 11.4699 40.96 12.1211 40.96 12.8V23.04C40.96 23.719 40.6903 24.3701 40.2102 24.8502C39.7301 25.3303 39.079 25.6 38.4 25.6C37.7211 25.6 37.0699 25.3303 36.5898 24.8502C36.1098 24.3701 35.84 23.719 35.84 23.04V12.8C35.84 12.1211 36.1098 11.4699 36.5898 10.9898C37.0699 10.5097 37.7211 10.24 38.4 10.24ZM51.2 10.24C51.879 10.24 52.5301 10.5097 53.0102 10.9898C53.4903 11.4699 53.76 12.1211 53.76 12.8V23.04C53.76 23.719 53.4903 24.3701 53.0102 24.8502C52.5301 25.3303 51.879 25.6 51.2 25.6C50.5211 25.6 49.8699 25.3303 49.3898 24.8502C48.9098 24.3701 48.64 23.719 48.64 23.04V12.8C48.64 12.1211 48.9098 11.4699 49.3898 10.9898C49.8699 10.5097 50.5211 10.24 51.2 10.24ZM50.6778 56.32C51.3568 56.32 52.0079 56.5897 52.488 57.0698C52.9681 57.5499 53.2378 58.2011 53.2378 58.88V62.72C53.2378 63.399 52.9681 64.0501 52.488 64.5302C52.0079 65.0103 51.3568 65.28 50.6778 65.28C49.9988 65.28 49.3477 65.0103 48.8676 64.5302C48.3875 64.0501 48.1178 63.399 48.1178 62.72V58.88C48.1178 58.2011 48.3875 57.5499 48.8676 57.0698C49.3477 56.5897 49.9988 56.32 50.6778 56.32ZM81.3978 56.32C82.0768 56.32 82.7279 56.5897 83.208 57.0698C83.6881 57.5499 83.9578 58.2011 83.9578 58.88V62.72C83.9578 63.399 83.6881 64.0501 83.208 64.5302C82.7279 65.0103 82.0768 65.28 81.3978 65.28C80.7188 65.28 80.0677 65.0103 79.5876 64.5302C79.1075 64.0501 78.8378 63.399 78.8378 62.72V58.88C78.8378 58.2011 79.1075 57.5499 79.5876 57.0698C80.0677 56.5897 80.7188 56.32 81.3978 56.32ZM66.0378 80.64C58.4602 80.64 51.84 84.7514 48.297 90.88C48.1301 91.1735 47.9069 91.4311 47.64 91.6379C47.3732 91.8448 47.0681 91.9968 46.7423 92.0853C46.4165 92.1737 46.0764 92.1969 45.7416 92.1534C45.4068 92.1098 45.0839 92.0005 44.7915 91.8317C44.4991 91.6629 44.243 91.4379 44.038 91.1697C43.8329 90.9016 43.6829 90.5954 43.5966 90.269C43.5103 89.9426 43.4894 89.6024 43.5351 89.2679C43.5809 88.9334 43.6923 88.6113 43.8631 88.32C46.1095 84.427 49.3417 81.1943 53.2345 78.9473C57.1272 76.7003 61.5431 75.5182 66.0378 75.52C70.5316 75.5191 74.9465 76.7016 78.8382 78.9485C82.73 81.1955 85.9614 84.4277 88.2074 88.32C88.5135 88.9051 88.5816 89.5858 88.3976 90.2199C88.2137 90.854 87.7918 91.3926 87.2202 91.723C86.6485 92.0534 85.9713 92.1502 85.33 91.9931C84.6886 91.836 84.1328 91.4372 83.7786 90.88C81.9815 87.7653 79.3956 85.1789 76.2812 83.3813C73.1668 81.5836 69.6338 80.6382 66.0378 80.64Z" fill="black"/>
</svg>
