<svg width="35" height="35" viewBox="0 0 35 35" fill="none" xmlns="http://www.w3.org/2000/svg">
<path d="M15.0476 0.953354C16.4161 -0.317785 18.5839 -0.317785 19.9524 0.953354L21.107 2.02577C21.8896 2.75265 22.9761 3.092 24.0528 2.94579L25.6434 2.72977C27.529 2.47371 29.286 3.70292 29.616 5.50896L29.89 7.00881C30.0789 8.04314 30.7534 8.93543 31.7174 9.4265L33.1185 10.1403C34.8058 10.9998 35.4789 12.9946 34.6386 14.6451L33.9476 16.0023C33.4666 16.9471 33.4666 18.053 33.9476 18.9977L34.6386 20.3549C35.4789 22.0054 34.8058 24.0002 33.1185 24.8597L31.7174 25.5735C30.7534 26.0646 30.0789 26.9569 29.89 27.9912L29.616 29.491C29.286 31.2971 27.529 32.5263 25.6434 32.2702L24.0528 32.0542C22.9761 31.908 21.8896 32.2474 21.107 32.9742L19.9524 34.0466C18.5839 35.3178 16.4161 35.3178 15.0476 34.0466L13.893 32.9742C13.1104 32.2474 12.0239 31.908 10.9472 32.0542L9.35657 32.2702C7.47101 32.5263 5.714 31.2971 5.38404 29.491L5.11002 27.9912C4.92105 26.9569 4.24661 26.0646 3.28263 25.5735L1.88151 24.8597C0.194221 24.0002 -0.478896 22.0054 0.361429 20.3549L1.05241 18.9977C1.5334 18.0529 1.5334 16.9471 1.05241 16.0023L0.361428 14.6451C-0.478897 12.9946 0.194225 10.9998 1.88151 10.1403L3.28263 9.4265C4.24661 8.93543 4.92105 8.04313 5.11002 7.00881L5.38404 5.50896C5.714 3.70291 7.47101 2.47371 9.35657 2.72977L10.9472 2.94579C12.0239 3.092 13.1104 2.75265 13.893 2.02577L15.0476 0.953354Z" fill="#FF3838"/>
<path fill-rule="evenodd" clip-rule="evenodd" d="M21.4526 11.9107L26.7559 17.214C27.0814 17.5395 27.0814 18.0671 26.7559 18.3926L21.4526 23.6959C21.1272 24.0213 20.5995 24.0213 20.2741 23.6959C19.9487 23.3704 19.9487 22.8428 20.2741 22.5173L24.1548 18.6366H7.83333C7.3731 18.6366 7 18.2635 7 17.8033C7 17.3431 7.3731 16.97 7.83333 16.97H24.1548L20.2741 13.0893C19.9487 12.7638 19.9487 12.2362 20.2741 11.9107C20.5995 11.5853 21.1272 11.5853 21.4526 11.9107Z" fill="white"/>
</svg>
