<svg width="128" height="128" viewBox="0 0 128 128" fill="none" xmlns="http://www.w3.org/2000/svg">
<path d="M77.1064 89.6137L64.8047 90.5143C55.0217 91.222 45.2826 88.6412 37.1339 83.1817C33.0196 80.416 28.759 78.048 22.8619 77.1657C14.5601 75.9269 11.4287 72.064 11.4287 60.0366C11.4287 42.5417 27.4104 28.2286 46.9396 28.2286H54.6059C68.1007 28.2286 81.5179 31.4194 92.663 38.24C101.125 43.4149 107.548 50.0434 107.548 60.0411C107.548 75.4926 94.3041 88.3612 77.1064 89.6137Z" fill="#FFD2E8"/>
<path d="M75.3649 78.4915C73.1661 78.4915 70.9901 77.6503 69.3352 75.9909L64.6724 71.328C64.256 70.8969 64.0256 70.3196 64.0308 69.7203C64.036 69.121 64.2764 68.5477 64.7002 68.1239C65.124 67.7001 65.6973 67.4597 66.2966 67.4545C66.8959 67.4493 67.4733 67.6797 67.9044 68.096L72.5672 72.7589C72.9433 73.135 73.3898 73.4333 73.8812 73.6369C74.3726 73.8404 74.8993 73.9452 75.4312 73.9452C75.9631 73.9452 76.4898 73.8404 76.9812 73.6369C77.4726 73.4333 77.9191 73.135 78.2952 72.7589C80.0598 70.9989 80.0598 68.4297 78.4781 66.848L64.6724 53.0423C64.256 52.6112 64.0256 52.0339 64.0308 51.4345C64.036 50.8352 64.2764 50.262 64.7002 49.8382C65.124 49.4144 65.6973 49.174 66.2966 49.1688C66.8959 49.1636 67.4733 49.394 67.9044 49.8103L81.7101 63.616C83.3258 65.2343 84.2333 67.4275 84.2333 69.7143C84.2333 72.0011 83.3258 74.1944 81.7101 75.8126C80.8816 76.6558 79.8944 77.3266 78.8053 77.7864C77.7163 78.2462 76.547 78.4858 75.3649 78.4915ZM25.1432 48C24.6157 47.9961 24.1057 47.8101 23.6995 47.4736C23.2932 47.1371 23.0156 46.6707 22.9134 46.1531C22.8113 45.6356 22.891 45.0987 23.139 44.6331C23.387 44.1675 23.7882 43.8018 24.2746 43.5977L43.8404 35.552C45.9124 34.7126 48.186 34.503 50.3766 34.9495C52.5672 35.3959 54.5774 36.4785 56.1558 38.0617L58.7615 40.6675C59.1779 41.0985 59.4082 41.6759 59.403 42.2752C59.3978 42.8745 59.1574 43.4478 58.7336 43.8716C58.3099 44.2954 57.7366 44.5358 57.1373 44.541C56.538 44.5462 55.9606 44.3158 55.5295 43.8995L52.9238 41.2937C51.9839 40.3438 50.7834 39.6938 49.4742 39.4261C48.1649 39.1584 46.8057 39.2849 45.5684 39.7897L26.0118 47.8309C25.7357 47.9422 25.4409 47.9996 25.1432 48Z" fill="#131F18"/>
<path d="M58.4864 56.9463C56.2967 56.9463 54.1436 56.0914 52.5207 54.4686C51.5707 53.5262 50.8604 52.3698 50.4492 51.0965C50.038 49.8231 49.9379 48.4697 50.1573 47.1497C50.3635 45.8276 50.8849 44.5746 51.6774 43.4965C52.4699 42.4184 53.5102 41.5468 54.7104 40.9554L70.6602 32.9737C72.1301 32.2419 73.7399 31.8338 75.381 31.777C77.0221 31.7202 78.6563 32.0161 80.1733 32.6445L103.734 42.4594C104.295 42.6928 104.739 43.1391 104.97 43.7003C105.201 44.2614 105.2 44.8913 104.966 45.4514C104.733 46.0115 104.287 46.456 103.726 46.6871C103.164 46.9181 102.535 46.9168 101.974 46.6834L78.4133 36.8685C77.5041 36.4893 76.5238 36.3106 75.5393 36.3445C74.5547 36.3784 73.5891 36.6242 72.7082 37.0651L56.7584 45.0468C55.6339 45.6091 54.875 46.6468 54.6739 47.8857C54.4727 49.1246 54.8659 50.3497 55.7573 51.2366C56.3327 51.812 57.0749 52.1915 57.8783 52.3211C58.6816 52.4508 59.5055 52.324 60.2327 51.9588L74.3996 44.8183C74.6679 44.6807 74.9608 44.5975 75.2614 44.5736C75.5619 44.5496 75.8643 44.5854 76.151 44.6788C76.4377 44.7723 76.7031 44.9215 76.9318 45.118C77.1606 45.3144 77.3482 45.5542 77.4839 45.8235C77.6196 46.0927 77.7007 46.3862 77.7225 46.687C77.7443 46.9877 77.7063 47.2898 77.6108 47.5758C77.5153 47.8618 77.3642 48.1261 77.1661 48.3535C76.9681 48.5809 76.727 48.7668 76.4567 48.9005L62.2853 56.0411C61.1074 56.6362 59.8061 56.9462 58.4864 56.9463ZM66.4773 87.4697C65.3451 87.4736 64.2234 87.2525 63.1773 86.8193C62.1312 86.3861 61.1816 85.7495 60.3836 84.9463L54.5733 79.136C54.1569 78.7049 53.9265 78.1275 53.9318 77.5282C53.937 76.9289 54.1773 76.3556 54.6011 75.9318C55.0249 75.508 55.5982 75.2676 56.1975 75.2624C56.7968 75.2572 57.3742 75.4876 57.8053 75.904L63.6156 81.7143C64.386 82.4495 65.41 82.8597 66.475 82.8597C67.54 82.8597 68.564 82.4495 69.3344 81.7143C70.0979 80.9508 70.5184 79.936 70.5184 78.8571C70.5184 77.7783 70.0979 76.7634 69.3344 76L64.667 71.3326C64.2506 70.9015 64.0203 70.3241 64.0255 69.7248C64.0307 69.1255 64.2711 68.5522 64.6949 68.1284C65.1186 67.7046 65.6919 67.4642 66.2912 67.459C66.8905 67.4538 67.4679 67.6842 67.899 68.1006L72.5664 72.768C74.1939 74.3908 75.0899 76.5531 75.0899 78.8571C75.0899 81.1611 74.1939 83.3234 72.5664 84.9463C71.769 85.7489 70.8201 86.3853 69.7749 86.8184C68.7296 87.2516 67.6087 87.473 66.4773 87.4697Z" fill="#131F18"/>
<path d="M56.3066 95.3234C54.0748 95.3302 51.9288 94.464 50.3271 92.9097L39.8357 83.392C35.8181 79.7326 30.5775 77.7074 25.1431 77.7143C24.5369 77.7143 23.9555 77.4735 23.5269 77.0448C23.0982 76.6162 22.8574 76.0348 22.8574 75.4286C22.8574 74.8224 23.0982 74.241 23.5269 73.8123C23.9555 73.3837 24.5369 73.1429 25.1431 73.1429C31.726 73.1429 38.0391 75.5794 42.9077 80.0046L53.454 89.5771C54.2161 90.3322 55.2447 90.7569 56.3175 90.7595C57.3902 90.7621 58.4209 90.3423 59.1866 89.5909C60.014 88.7589 60.43 87.7486 60.43 86.6652C60.43 85.5817 60.0094 84.5714 59.246 83.808L54.5786 79.1406C54.1622 78.7095 53.9318 78.1321 53.937 77.5328C53.9422 76.9335 54.1826 76.3602 54.6064 75.9364C55.0302 75.5126 55.6035 75.2722 56.2028 75.267C56.8021 75.2618 57.3795 75.4922 57.8106 75.9086L62.478 80.576C64.1054 82.1989 65.0014 84.3612 65.0014 86.6652C65.0014 88.9692 64.1054 91.1314 62.478 92.7543C61.67 93.5689 60.7086 94.2154 59.6493 94.6564C58.5901 95.0973 57.4539 95.324 56.3066 95.3234ZM91.6666 79.9177C90.4277 79.9177 89.1751 79.7166 87.9683 79.3006L79.3511 76.352C78.7932 76.1442 78.3384 75.727 78.0834 75.189C77.8284 74.6511 77.7934 74.0349 77.9858 73.4715C78.1781 72.9081 78.5827 72.4419 79.1135 72.1723C79.6442 71.9026 80.2592 71.8506 80.8277 72.0274L89.4494 74.976C90.5903 75.3646 91.8132 75.4467 92.9958 75.214C94.1784 74.9814 95.2791 74.4421 96.1877 73.6503L101.353 69.1337C101.809 68.7342 102.405 68.5322 103.01 68.5721C103.615 68.6119 104.179 68.8904 104.579 69.3463C104.978 69.8022 105.18 70.3981 105.14 71.0029C105.1 71.6077 104.822 72.1719 104.366 72.5714L99.2003 77.0926C97.1145 78.9164 94.4372 79.9204 91.6666 79.9177Z" fill="#131F18"/>
<path d="M116.571 82.2857H102.857C102.251 82.2857 101.669 82.0449 101.241 81.6162C100.812 81.1876 100.571 80.6062 100.571 80V38.8571C100.571 38.2509 100.812 37.6695 101.241 37.2409C101.669 36.8122 102.251 36.5714 102.857 36.5714H116.571C117.177 36.5714 117.759 36.8122 118.187 37.2409C118.616 37.6695 118.857 38.2509 118.857 38.8571V80C118.857 80.6062 118.616 81.1876 118.187 81.6162C117.759 82.0449 117.177 82.2857 116.571 82.2857ZM105.143 77.7143H114.285V41.1428H105.143V77.7143ZM25.1426 82.2857H11.4283C10.8221 82.2857 10.2407 82.0449 9.81205 81.6162C9.38339 81.1876 9.14258 80.6062 9.14258 80V38.8571C9.14258 38.2509 9.38339 37.6695 9.81205 37.2409C10.2407 36.8122 10.8221 36.5714 11.4283 36.5714H25.1426C25.7488 36.5714 26.3302 36.8122 26.7588 37.2409C27.1875 37.6695 27.4283 38.2509 27.4283 38.8571V80C27.4283 80.6062 27.1875 81.1876 26.7588 81.6162C26.3302 82.0449 25.7488 82.2857 25.1426 82.2857ZM13.714 77.7143H22.8569V41.1428H13.714V77.7143Z" fill="#131F18"/>
</svg>
