<svg width="150" height="150" viewBox="0 0 150 150" fill="none" xmlns="http://www.w3.org/2000/svg">
<rect width="150" height="150" rx="75" fill="#DCFFE6"/>
<g clip-path="url(#clip0_3050_4058)">
<path d="M80.0004 70C80.0004 72.76 77.7604 75 75.0004 75C72.2404 75 70.0004 72.76 70.0004 70C70.0004 67.24 72.2404 65 75.0004 65C77.7604 65 80.0004 67.24 80.0004 70ZM91.6671 65C88.9071 65 86.6671 67.24 86.6671 70C86.6671 72.76 88.9071 75 91.6671 75C94.4271 75 96.6671 72.76 96.6671 70C96.6671 67.24 94.4271 65 91.6671 65ZM58.3337 65C55.5737 65 53.3337 67.24 53.3337 70C53.3337 72.76 55.5737 75 58.3337 75C61.0937 75 63.3337 72.76 63.3337 70C63.3337 67.24 61.0937 65 58.3337 65ZM115 48.3333V88.3333C115 95.6867 109.02 101.667 101.667 101.667H92.1604L79.3337 112.267C78.1304 113.34 76.5871 113.88 75.0271 113.88C73.4404 113.88 71.8437 113.32 70.5704 112.19L58.0737 101.667H48.3304C40.9771 101.667 34.9971 95.6867 34.9971 88.3333V48.3333C35.0004 40.98 40.9804 35 48.3337 35H101.667C109.02 35 115 40.98 115 48.3333ZM108.334 48.3333C108.334 44.6567 105.344 41.6667 101.667 41.6667H48.3337C44.6571 41.6667 41.6671 44.6567 41.6671 48.3333V88.3333C41.6671 92.01 44.6571 95 48.3337 95H59.2937C60.0771 95 60.8404 95.2767 61.4437 95.7833L74.9371 107.15L88.8404 95.7633C89.4371 95.27 90.1871 95 90.9637 95H101.67C105.347 95 108.337 92.01 108.337 88.3333L108.334 48.3333Z" fill="#4EDE79"/>
</g>
<defs>
<clipPath id="clip0_3050_4058">
<rect width="80" height="80" fill="white" transform="translate(35 35)"/>
</clipPath>
</defs>
</svg>
