<svg width="128" height="128" viewBox="0 0 128 128" fill="none" xmlns="http://www.w3.org/2000/svg">
<path d="M75.0582 14.3726C64.7588 12.5486 32.7176 6.016 19.1954 21.376C10.2902 31.4926 -7.2275 83.3737 24.5028 107.863C33.3028 114.656 81.6548 92.4663 90.4502 86.816C106.729 76.3566 88.4251 16.7451 75.0582 14.3726Z" fill="#FFD2E8"/>
<path d="M78.4092 77.9657C70.5966 84.4937 58.6515 108.553 65.5544 115.698C72.4572 122.843 100.101 104.905 109.545 96.9051C118.99 88.9051 117.897 72.352 112.453 67.0583C106.999 61.76 86.4138 71.2731 78.4092 77.9657Z" fill="#FF3838"/>
<path d="M63.5157 118.857C63.1773 118.858 62.843 118.783 62.5369 118.638C62.2309 118.494 61.9607 118.283 61.746 118.022C61.5312 117.76 61.3772 117.454 61.2951 117.126C61.213 116.798 61.2048 116.455 61.2711 116.123L64.5031 99.9589C64.59 99.5162 64.8083 99.11 65.1294 98.7931L100.686 63.2366C101.972 61.9522 103.716 61.2308 105.534 61.2308C107.352 61.2308 109.095 61.9522 110.382 63.2366L116.846 69.7006C118.13 70.9871 118.852 72.7307 118.852 74.5486C118.852 76.3665 118.13 78.1101 116.846 79.3966L81.2894 114.953C80.9704 115.274 80.5629 115.492 80.1191 115.579L63.9591 118.811C63.8134 118.842 63.6647 118.858 63.5157 118.857ZM68.8551 101.536L66.4323 113.659L78.5511 111.237L113.619 76.1691C114.047 75.7405 114.288 75.1592 114.288 74.5531C114.288 73.9471 114.047 73.3658 113.619 72.9371L107.155 66.4731C106.726 66.0446 106.145 65.8039 105.539 65.8039C104.932 65.8039 104.351 66.0446 103.923 66.4731L68.8551 101.536ZM70.8574 77.7143H25.1431C24.5369 77.7143 23.9555 77.4735 23.5269 77.0448C23.0982 76.6162 22.8574 76.0348 22.8574 75.4286C22.8574 74.8224 23.0982 74.241 23.5269 73.8123C23.9555 73.3837 24.5369 73.1429 25.1431 73.1429H70.8574C71.4636 73.1429 72.045 73.3837 72.4737 73.8123C72.9023 74.241 73.1431 74.8224 73.1431 75.4286C73.1431 76.0348 72.9023 76.6162 72.4737 77.0448C72.045 77.4735 71.4636 77.7143 70.8574 77.7143ZM61.7146 91.4286H25.1431C24.5369 91.4286 23.9555 91.1878 23.5269 90.7591C23.0982 90.3305 22.8574 89.7491 22.8574 89.1429C22.8574 88.5366 23.0982 87.9553 23.5269 87.5266C23.9555 87.098 24.5369 86.8571 25.1431 86.8571H61.7146C62.3208 86.8571 62.9022 87.098 63.3308 87.5266C63.7595 87.9553 64.0003 88.5366 64.0003 89.1429C64.0003 89.7491 63.7595 90.3305 63.3308 90.7591C62.9022 91.1878 62.3208 91.4286 61.7146 91.4286ZM48.0003 41.1429C42.958 41.1429 38.8574 37.0423 38.8574 32C38.8574 26.9577 42.958 22.8571 48.0003 22.8571C53.0426 22.8571 57.1431 26.9577 57.1431 32C57.1431 37.0423 53.0426 41.1429 48.0003 41.1429ZM48.0003 27.4286C46.8232 27.4812 45.7118 27.9859 44.8975 28.8374C44.0832 29.6889 43.6288 30.8218 43.6288 32C43.6288 33.1782 44.0832 34.3111 44.8975 35.1626C45.7118 36.0141 46.8232 36.5188 48.0003 36.5714C49.1773 36.5188 50.2887 36.0141 51.103 35.1626C51.9173 34.3111 52.3718 33.1782 52.3718 32C52.3718 30.8218 51.9173 29.6889 51.103 28.8374C50.2887 27.9859 49.1773 27.4812 48.0003 27.4286ZM64.0003 64C63.3941 64 62.8127 63.7592 62.384 63.3305C61.9554 62.9019 61.7146 62.3205 61.7146 61.7143V57.1429C61.7146 53.3623 58.638 50.2857 54.8574 50.2857H41.1431C37.3626 50.2857 34.286 53.3623 34.286 57.1429V61.7143C34.286 62.3205 34.0452 62.9019 33.6165 63.3305C33.1879 63.7592 32.6065 64 32.0003 64C31.3941 64 30.8127 63.7592 30.384 63.3305C29.9554 62.9019 29.7146 62.3205 29.7146 61.7143V57.1429C29.7146 50.8434 34.8391 45.7143 41.1431 45.7143H54.8574C61.1614 45.7143 66.286 50.8434 66.286 57.1429V61.7143C66.286 62.3205 66.0452 62.9019 65.6165 63.3305C65.1879 63.7592 64.6065 64 64.0003 64Z" fill="black"/>
<path d="M52.5712 105.143H20.5712C17.5412 105.139 14.6364 103.934 12.4939 101.791C10.3515 99.649 9.14621 96.7442 9.14258 93.7143V20.5714C9.14258 14.272 14.2672 9.14285 20.5712 9.14285H75.4283C81.7323 9.14285 86.8569 14.272 86.8569 20.5714V61.7143C86.8569 62.3205 86.6161 62.9019 86.1874 63.3305C85.7587 63.7592 85.1774 64 84.5712 64C83.9649 64 83.3836 63.7592 82.9549 63.3305C82.5263 62.9019 82.2854 62.3205 82.2854 61.7143V20.5714C82.2854 16.7909 79.2089 13.7143 75.4283 13.7143H20.5712C16.7906 13.7143 13.714 16.7909 13.714 20.5714V93.7143C13.714 97.4949 16.7906 100.571 20.5712 100.571H52.5712C53.1774 100.571 53.7587 100.812 54.1874 101.241C54.6161 101.67 54.8569 102.251 54.8569 102.857C54.8569 103.463 54.6161 104.045 54.1874 104.473C53.7587 104.902 53.1774 105.143 52.5712 105.143Z" fill="black"/>
</svg>
