<svg width="128" height="128" viewBox="0 0 128 128" fill="none" xmlns="http://www.w3.org/2000/svg">
<path d="M103.73 25.7051C94.9758 12.576 81.161 2.34971 58.0524 12.2697C35.6844 21.8697 24.8455 33.4949 25.1244 56.2971C25.6135 96.2651 53.193 112.384 69.5952 115.877C81.9427 118.505 92.4432 113.874 102.592 105.591C114.318 96.0229 119.072 48.7131 103.73 25.7051Z" fill="#4EDE79"/>
<path d="M59.5525 21.4537C39.3147 21.984 30.5422 35.2594 40.4622 59.0491C47.3879 75.6571 93.1753 72.2651 85.8656 56.3383C76.7547 36.4937 86.4782 20.7406 59.5525 21.4537Z" fill="#DCFFE6"/>
<path d="M102.857 63.1771C102.251 63.1771 101.67 62.9363 101.241 62.5077C100.813 62.079 100.572 61.4976 100.572 60.8914V20.5714C100.572 16.7909 97.4951 13.7143 93.7146 13.7143H34.286C30.5054 13.7143 27.4289 16.7909 27.4289 20.5714V60.8914C27.4289 61.4976 27.188 62.079 26.7594 62.5077C26.3307 62.9363 25.7493 63.1771 25.1431 63.1771C24.5369 63.1771 23.9555 62.9363 23.5269 62.5077C23.0982 62.079 22.8574 61.4976 22.8574 60.8914V20.5714C22.8574 14.2674 27.982 9.14285 34.286 9.14285H93.7146C100.019 9.14285 105.143 14.2674 105.143 20.5714V60.8914C105.143 61.4976 104.902 62.079 104.474 62.5077C104.045 62.9363 103.464 63.1771 102.857 63.1771Z" fill="black"/>
<path d="M63.9997 82.2583C62.1849 82.2583 60.37 81.824 58.7151 80.9646L10.3723 55.7394C10.106 55.6005 9.86977 55.4104 9.67698 55.1801C9.48418 54.9498 9.33863 54.6838 9.24864 54.3973C9.15865 54.1108 9.12597 53.8093 9.15248 53.5101C9.17899 53.211 9.26416 52.92 9.40314 52.6537C9.54212 52.3875 9.73217 52.1512 9.96246 51.9584C10.1927 51.7656 10.4587 51.6201 10.7453 51.5301C11.0318 51.4401 11.3333 51.4074 11.6324 51.4339C11.9316 51.4604 12.2226 51.5456 12.4889 51.6846L60.8317 76.9097C62.8157 77.9474 65.1883 77.9474 67.1723 76.9097L115.515 51.6846C115.781 51.5456 116.072 51.4604 116.372 51.4339C116.671 51.4074 116.972 51.4401 117.259 51.5301C117.545 51.6201 117.811 51.7656 118.042 51.9584C118.272 52.1512 118.462 52.3875 118.601 52.6537C118.74 52.92 118.825 53.211 118.852 53.5101C118.878 53.8093 118.845 54.1108 118.755 54.3973C118.665 54.6838 118.52 54.9498 118.327 55.1801C118.134 55.4104 117.898 55.6005 117.632 55.7394L69.2889 80.9646C67.6546 81.8124 65.8408 82.2561 63.9997 82.2583Z" fill="black"/>
<path d="M109.714 114.286H18.2855C13.2432 114.286 9.14259 110.185 9.14259 105.143V47.5886C9.13943 45.9145 9.59824 44.2721 10.4685 42.842C11.3388 41.412 12.5868 40.2498 14.0752 39.4834L24.0866 34.272C24.6223 34.0115 25.2385 33.9704 25.804 34.1574C26.3695 34.3445 26.8397 34.7449 27.1144 35.2734C27.3891 35.802 27.4466 36.4169 27.2747 36.9872C27.1028 37.5575 26.7151 38.0382 26.194 38.3268L16.1826 43.5383C15.4387 43.9214 14.8147 44.5021 14.3792 45.2166C13.9438 45.9311 13.7136 46.7518 13.714 47.5886V105.143C13.714 106.355 14.1957 107.518 15.053 108.375C15.9103 109.233 17.073 109.714 18.2855 109.714H109.714C110.926 109.714 112.089 109.233 112.947 108.375C113.804 107.518 114.285 106.355 114.285 105.143V47.5886C114.286 46.7512 114.056 45.93 113.62 45.2148C113.185 44.4996 112.561 43.918 111.817 43.5337L101.805 38.3223C101.531 38.1888 101.286 38.0016 101.085 37.7718C100.884 37.5421 100.731 37.2744 100.635 36.9845C100.539 36.6947 100.502 36.3885 100.527 36.0842C100.551 35.7799 100.636 35.4836 100.777 35.2127C100.918 34.9418 101.111 34.7018 101.346 34.507C101.581 34.3122 101.853 34.1664 102.145 34.0783C102.438 33.9902 102.745 33.9615 103.048 33.994C103.352 34.0265 103.646 34.1195 103.913 34.2674L113.924 39.4788C115.412 40.2468 116.66 41.41 117.53 42.8406C118.4 44.2713 118.859 45.9141 118.857 47.5886V105.143C118.857 110.185 114.756 114.286 109.714 114.286Z" fill="black"/>
<path d="M84.5713 64H43.4284C39.6479 64 36.5713 60.9234 36.5713 57.1429V34.2857C36.5713 30.5051 39.6479 27.4286 43.4284 27.4286H84.5713C88.3519 27.4286 91.4284 30.5051 91.4284 34.2857V57.1429C91.4284 60.9234 88.3519 64 84.5713 64ZM43.4284 32C42.1713 32 41.1427 33.0286 41.1427 34.2857V57.1429C41.1427 58.4 42.1713 59.4286 43.4284 59.4286H84.5713C85.8284 59.4286 86.857 58.4 86.857 57.1429V34.2857C86.857 33.0286 85.8284 32 84.5713 32H43.4284Z" fill="black"/>
<path d="M73.1427 32C72.5365 32 71.9551 31.7592 71.5265 31.3305C71.0978 30.9019 70.857 30.3205 70.857 29.7143V25.1428C70.857 23.8857 69.8284 22.8571 68.5713 22.8571H59.4284C58.1713 22.8571 57.1427 23.8857 57.1427 25.1428V29.7143C57.1427 30.3205 56.9019 30.9019 56.4733 31.3305C56.0446 31.7592 55.4632 32 54.857 32C54.2508 32 53.6694 31.7592 53.2408 31.3305C52.8121 30.9019 52.5713 30.3205 52.5713 29.7143V25.1428C52.5713 21.3623 55.6479 18.2857 59.4284 18.2857H68.5713C72.3519 18.2857 75.4284 21.3623 75.4284 25.1428V29.7143C75.4284 30.3205 75.1876 30.9019 74.759 31.3305C74.3303 31.7592 73.7489 32 73.1427 32ZM89.1427 45.7143H38.857C38.2508 45.7143 37.6694 45.4735 37.2408 45.0448C36.8121 44.6162 36.5713 44.0348 36.5713 43.4286C36.5713 42.8224 36.8121 42.241 37.2408 41.8123C37.6694 41.3837 38.2508 41.1428 38.857 41.1428H89.1427C89.7489 41.1428 90.3303 41.3837 90.759 41.8123C91.1876 42.241 91.4284 42.8224 91.4284 43.4286C91.4284 44.0348 91.1876 44.6162 90.759 45.0448C90.3303 45.4735 89.7489 45.7143 89.1427 45.7143Z" fill="black"/>
<path d="M63.9996 50.2857C63.3934 50.2857 62.812 50.0449 62.3833 49.6162C61.9547 49.1876 61.7139 48.6062 61.7139 48V38.8571C61.7139 38.2509 61.9547 37.6695 62.3833 37.2409C62.812 36.8122 63.3934 36.5714 63.9996 36.5714C64.6058 36.5714 65.1872 36.8122 65.6158 37.2409C66.0445 37.6695 66.2853 38.2509 66.2853 38.8571V48C66.2853 48.6062 66.0445 49.1876 65.6158 49.6162C65.1872 50.0449 64.6058 50.2857 63.9996 50.2857Z" fill="black"/>
</svg>
