<svg width="77" height="309" viewBox="0 0 77 309" fill="none" xmlns="http://www.w3.org/2000/svg">
<path d="M73.6343 2.09563L76.52 0L76.7168 77.1743C73.2963 79.6582 68.5234 78.9894 65.9174 75.661L63.7188 72.8529C62.2286 70.9496 59.945 69.8385 57.5277 69.8406L53.9562 69.8437C49.7226 69.8474 46.2479 66.495 46.1 62.264L45.9772 58.7504C45.8925 56.3273 44.6935 54.0792 42.7283 52.659L39.8721 50.5949C36.4324 48.1092 35.5895 43.3407 37.9685 39.8264L39.9247 36.9367C41.2864 34.9252 41.6407 32.3967 40.8843 30.0884L39.7978 26.7723C38.4764 22.7395 40.5976 18.3864 44.588 16.9418L47.9016 15.7422C50.1814 14.9169 51.9522 13.085 52.6997 10.7785L53.7836 7.43395C55.0887 3.4066 59.3511 1.13837 63.4206 2.30556L66.8537 3.29022C69.1773 3.95666 71.6783 3.51603 73.6343 2.09563Z" fill="url(#paint0_linear_2370_25757)"/>
<path d="M77 88.3588L76.2724 179.495C73.569 178.146 70.3948 178.116 67.6667 179.415L63.6417 181.331C58.8707 183.603 53.1577 181.691 50.7152 177.005L48.6546 173.052C47.2579 170.373 44.7052 168.486 41.734 167.936L37.344 167.124C32.1402 166.162 28.6355 161.249 29.4201 156.015L30.0716 151.669C30.5209 148.672 29.5608 145.635 27.47 143.441L24.4312 140.252C20.7717 136.412 20.8248 130.359 24.5511 126.583L27.6151 123.479C29.748 121.317 30.7609 118.291 30.3586 115.282L29.7806 110.958C29.0776 105.7 32.6787 100.835 37.9126 99.9707L42.2589 99.2532C45.2492 98.7596 47.8439 96.9126 49.2892 94.2487L51.3851 90.3859C53.9088 85.7346 59.6651 83.9204 64.3998 86.2842L68.3941 88.2784C71.0975 89.628 74.2718 89.6577 77 88.3588Z" fill="#FFDEEE"/>
<path d="M59.9278 193.54L64.4538 190.689C69.8185 187.308 73.3955 187.608 76.9676 192.847L76.9678 304.06L71.9264 302.248C68.5143 301.021 64.7274 301.434 61.6597 303.367L57.1337 306.219C51.769 309.599 44.691 308.127 41.119 302.888L38.1053 298.468C36.0627 295.472 32.7543 293.584 29.136 293.349L23.79 293.001C17.453 292.589 12.583 287.228 12.7791 280.881L12.942 275.61C13.0543 271.975 11.4815 268.491 8.68025 266.172L4.60877 262.801C-0.294265 258.741 -1.08545 251.52 2.82208 246.495L6.03514 242.363C8.27177 239.486 9.05157 235.737 8.14725 232.207L6.84814 227.137C5.26823 220.97 8.87263 214.664 14.9878 212.896L20.0658 211.427C23.5596 210.417 26.3908 207.849 27.7372 204.471L29.6894 199.572C32.0403 193.673 38.6438 190.698 44.6197 192.847L49.661 194.659C53.0731 195.886 56.8601 195.473 59.9278 193.54Z" fill="#FFDEEE"/>
<defs>
<linearGradient id="paint0_linear_2370_25757" x1="56.9997" y1="-16.5" x2="55.9997" y2="106" gradientUnits="userSpaceOnUse">
<stop stop-color="#FFDEEE" stop-opacity="0"/>
<stop offset="1" stop-color="#FFDEEE"/>
</linearGradient>
</defs>
</svg>
