<svg width="77" height="309" viewBox="0 0 77 309" fill="none" xmlns="http://www.w3.org/2000/svg">
<path d="M3.36567 2.09563L0.479965 0L0.283203 77.1743C3.70363 79.6582 8.47651 78.9894 11.0824 75.661L13.281 72.8529C14.7711 70.9496 17.0547 69.8385 19.4719 69.8406L23.0434 69.8437C27.2769 69.8474 30.7516 66.495 30.8995 62.264L31.0223 58.7504C31.1069 56.3273 32.306 54.0792 34.2711 52.659L37.1273 50.5949C40.5669 48.1092 41.4098 43.3407 39.0309 39.8264L37.0747 36.9367C35.713 34.9252 35.3587 32.3967 36.115 30.0884L37.2016 26.7723C38.523 22.7395 36.4018 18.3864 32.4115 16.9418L29.0979 15.7422C26.8181 14.9169 25.0473 13.085 24.2999 10.7785L23.216 7.43395C21.9109 3.4066 17.6486 1.13837 13.5792 2.30556L10.1461 3.29022C7.82257 3.95666 5.32157 3.51603 3.36567 2.09563Z" fill="url(#paint0_linear_2370_25749)"/>
<path d="M0 88.3588L0.727626 179.495C3.43094 178.146 6.60509 178.116 9.33312 179.415L13.3581 181.331C18.129 183.603 23.8419 181.691 26.2843 177.005L28.3449 173.052C29.7416 170.373 32.2943 168.486 35.2654 167.936L39.6553 167.124C44.859 166.162 48.3636 161.249 47.5791 156.015L46.9276 151.669C46.4783 148.672 47.4384 145.635 49.5291 143.441L52.5679 140.252C56.2273 136.412 56.1743 130.359 52.448 126.583L49.384 123.479C47.2512 121.317 46.2383 118.291 46.6406 115.282L47.2186 110.958C47.9215 105.7 44.3206 100.835 39.0867 99.9707L34.7405 99.2532C31.7503 98.7596 29.1556 96.9126 27.7103 94.2487L25.6145 90.3859C23.0908 85.7346 17.3346 83.9204 12.6 86.2842L8.60576 88.2784C5.90239 89.628 2.72811 89.6577 0 88.3588Z" fill="#FFDEEE"/>
<path d="M17.0729 193.54L12.547 190.689C7.18238 187.308 3.60539 187.608 0.0333672 192.847L0.0332031 304.06L5.07447 302.248C8.48651 301.021 12.2734 301.434 15.341 303.367L19.867 306.219C25.2316 309.599 32.3094 308.127 35.8814 302.888L38.895 298.468C40.9376 295.472 44.2459 293.584 47.8641 293.349L53.21 293.001C59.5469 292.589 64.4169 287.228 64.2207 280.881L64.0579 275.61C63.9455 271.975 65.5184 268.491 68.3196 266.172L72.391 262.801C77.2939 258.741 78.0851 251.52 74.1776 246.495L70.9646 242.363C68.728 239.486 67.9482 235.737 68.8525 232.207L70.1516 227.137C71.7315 220.97 68.1272 214.664 62.0121 212.896L56.9342 211.427C53.4405 210.417 50.6093 207.849 49.263 204.471L47.3107 199.572C44.9599 193.673 38.3565 190.698 32.3807 192.847L27.3395 194.659C23.9274 195.886 20.1406 195.473 17.0729 193.54Z" fill="#FFDEEE"/>
<defs>
<linearGradient id="paint0_linear_2370_25749" x1="20" y1="-16.5" x2="21" y2="106" gradientUnits="userSpaceOnUse">
<stop stop-color="#FFDEEE" stop-opacity="0"/>
<stop offset="1" stop-color="#FFDEEE"/>
</linearGradient>
</defs>
</svg>
