<svg width="150" height="150" viewBox="0 0 150 150" fill="none" xmlns="http://www.w3.org/2000/svg">
<rect width="150" height="150" rx="75" fill="#DCFFE6"/>
<g clip-path="url(#clip0_3051_4090)">
<path d="M101.667 35H48.3333C40.98 35 35 40.98 35 48.3333V88.3333C35 95.6867 40.98 101.667 48.3333 101.667H58.0767L70.5733 112.19C71.8467 113.32 73.4433 113.88 75.03 113.88C76.59 113.88 78.1333 113.337 79.3367 112.267L92.1633 101.667H101.67C109.023 101.667 115.003 95.6867 115.003 88.3333V48.3333C115.003 40.98 109.02 35 101.667 35ZM58.3333 75C55.5733 75 53.3333 72.76 53.3333 70C53.3333 67.24 55.5733 65 58.3333 65C61.0933 65 63.3333 67.24 63.3333 70C63.3333 72.76 61.0933 75 58.3333 75ZM75 75C72.24 75 70 72.76 70 70C70 67.24 72.24 65 75 65C77.76 65 80 67.24 80 70C80 72.76 77.76 75 75 75ZM91.6667 75C88.9067 75 86.6667 72.76 86.6667 70C86.6667 67.24 88.9067 65 91.6667 65C94.4267 65 96.6667 67.24 96.6667 70C96.6667 72.76 94.4267 75 91.6667 75Z" fill="#4EDE79"/>
</g>
<defs>
<clipPath id="clip0_3051_4090">
<rect width="80" height="80" fill="white" transform="translate(35 35)"/>
</clipPath>
</defs>
</svg>
