<svg width="150" height="150" viewBox="0 0 150 150" fill="none" xmlns="http://www.w3.org/2000/svg">
<rect width="150" height="150" rx="75" fill="#DCFFE6"/>
<g clip-path="url(#clip0_3050_4059)">
<path d="M105.516 100.803C111.638 93.5993 115 84.4535 115 74.9998C115 65.5461 111.638 56.4003 105.516 49.1965L108.383 46.3298C109.008 45.7043 109.359 44.8562 109.359 43.9719C109.358 43.0877 109.007 42.2398 108.381 41.6148C107.756 40.9898 106.908 40.6388 106.024 40.6391C105.139 40.6394 104.291 40.991 103.666 41.6165L100.8 44.4831C93.596 38.3612 84.4502 35 74.9965 35C65.5427 35 56.397 38.3612 49.1931 44.4831L46.3265 41.6165C45.6974 41.0097 44.8551 40.6743 43.9811 40.6825C43.1071 40.6907 42.2713 41.0419 41.6537 41.6603C41.0361 42.2788 40.6862 43.1151 40.6792 43.9891C40.6722 44.8631 41.0088 45.7049 41.6165 46.3331L44.4831 49.1998C38.3612 56.4036 35 65.5494 35 75.0031C35 84.4569 38.3612 93.6026 44.4831 100.806L41.6165 103.673C41.2983 103.981 41.0446 104.349 40.8702 104.756C40.6958 105.162 40.6042 105.6 40.6007 106.043C40.5971 106.485 40.6818 106.924 40.8497 107.333C41.0176 107.743 41.2653 108.115 41.5785 108.428C41.8917 108.741 42.2641 108.988 42.6738 109.155C43.0836 109.322 43.5226 109.406 43.9652 109.402C44.4078 109.398 44.8451 109.306 45.2517 109.131C45.6582 108.956 46.0259 108.702 46.3331 108.383L49.1998 105.516C56.4036 111.638 65.5494 115 75.0031 115C84.4569 115 93.6026 111.638 100.806 105.516L103.673 108.383C104.302 108.99 105.144 109.325 106.018 109.317C106.892 109.309 107.728 108.958 108.346 108.339C108.963 107.721 109.313 106.884 109.32 106.01C109.327 105.136 108.991 104.295 108.383 103.666L105.516 100.803ZM108.333 74.9998C108.339 82.688 105.674 90.1396 100.793 96.0798L88.8898 84.1765C90.7003 81.4584 91.6663 78.2656 91.6663 74.9998C91.6663 71.734 90.7003 68.5412 88.8898 65.8231L100.793 53.9198C105.674 59.86 108.339 67.3116 108.333 74.9998ZM64.9998 74.9998C64.9998 73.022 65.5863 71.0886 66.6851 69.4441C67.7839 67.7996 69.3457 66.5179 71.173 65.761C73.0002 65.0041 75.0109 64.8061 76.9507 65.1919C78.8905 65.5778 80.6723 66.5302 82.0709 67.9287C83.4694 69.3273 84.4218 71.1091 84.8076 73.0489C85.1935 74.9887 84.9955 76.9994 84.2386 78.8266C83.4817 80.6539 82.2 82.2157 80.5555 83.3145C78.911 84.4133 76.9776 84.9998 74.9998 84.9998C72.3476 84.9998 69.8041 83.9462 67.9287 82.0709C66.0534 80.1955 64.9998 77.652 64.9998 74.9998ZM74.9998 41.6665C82.688 41.6603 90.1396 44.3256 96.0798 49.2065L84.1765 61.1098C81.4584 59.2993 78.2656 58.3333 74.9998 58.3333C71.734 58.3333 68.5412 59.2993 65.8231 61.1098L53.9198 49.2065C59.86 44.3256 67.3116 41.6603 74.9998 41.6665ZM41.6665 74.9998C41.6603 67.3116 44.3256 59.86 49.2065 53.9198L61.1098 65.8231C59.2993 68.5412 58.3333 71.734 58.3333 74.9998C58.3333 78.2656 59.2993 81.4584 61.1098 84.1765L49.2065 96.0798C44.3256 90.1396 41.6603 82.688 41.6665 74.9998ZM74.9998 108.333C67.3116 108.339 59.86 105.674 53.9198 100.793L65.8231 88.8898C68.5412 90.7003 71.734 91.6663 74.9998 91.6663C78.2656 91.6663 81.4584 90.7003 84.1765 88.8898L96.0798 100.793C90.1396 105.674 82.688 108.339 74.9998 108.333Z" fill="#4EDE79"/>
</g>
<defs>
<clipPath id="clip0_3050_4059">
<rect width="80" height="80" fill="white" transform="translate(35 35)"/>
</clipPath>
</defs>
</svg>
