<svg width="863" height="592" viewBox="0 0 863 592" fill="none" xmlns="http://www.w3.org/2000/svg">
<g clip-path="url(#clip0_2987_3969)">
<path d="M246.416 750.46C220.943 748.443 198.69 746.681 181.036 745.37C180.182 743.868 179.063 742.533 177.737 741.408C174.699 738.831 171.083 737.752 168.423 737.24C165.585 736.694 162.681 736.579 160.139 736.665C157.574 736.752 155.057 737.054 152.902 737.499C151.831 737.72 150.701 738.007 149.624 738.381C148.81 738.664 147.021 739.325 145.37 740.672C144.991 740.982 144.387 741.513 143.763 742.288L141.347 742.66L124.587 736.593C83.5148 721.724 61.6822 676.918 75.283 635.409L87.85 597.055C97.561 567.417 93.0119 534.954 75.5287 509.128L52.9035 475.705C28.4171 439.533 37.0932 390.452 72.4964 364.867L105.532 340.993C130.762 322.759 146.157 293.894 147.245 262.784L148.665 222.145C150.187 178.596 185.951 144.09 229.526 144.128L270.834 144.164C301.87 144.191 331.189 129.925 350.322 105.488L375.75 73.0098C402.572 38.7507 451.699 31.8666 486.905 57.4335L520.281 81.6718C545.393 99.9087 577.505 105.566 607.338 97.0095L647.045 85.6208C688.931 73.6071 732.802 96.9537 746.235 138.407L758.771 177.09C768.368 206.703 791.104 230.225 820.374 240.821L858.699 254.695C899.771 269.564 921.604 314.37 908.003 355.879L895.436 394.233C885.725 423.871 890.274 456.334 907.758 482.16L930.383 515.583C954.869 551.755 946.193 600.836 910.79 626.421L877.754 650.295C852.524 668.529 837.129 697.394 836.042 728.504L834.685 767.312C834.281 767.558 833.689 767.877 832.848 768.257C829.173 769.916 823.08 771.556 814.295 772.958C796.91 775.732 771.643 777.186 740.618 777.557C678.718 778.297 595.628 774.721 510.804 769.598C426.036 764.478 339.771 757.828 271.59 752.451C262.904 751.766 254.498 751.1 246.416 750.46ZM835.462 766.736C835.469 766.738 835.432 766.783 835.329 766.868C835.403 766.778 835.454 766.735 835.462 766.736Z" stroke="#4EDE79" stroke-width="20"/>
</g>
<defs>
<clipPath id="clip0_2987_3969">
<rect width="863" height="592" fill="white"/>
</clipPath>
</defs>
</svg>
