<svg width="128" height="128" viewBox="0 0 128 128" fill="none" xmlns="http://www.w3.org/2000/svg">
<g clip-path="url(#clip0_3082_3975)">
<path d="M25.9149 25.0346C24.6082 18.5013 23.2589 11.7546 16.8162 5.55731C15.2536 4.05331 15.6642 1.25331 19.1309 0.906647C32.3736 -0.432019 48.8642 -2.06935 61.8136 10.3733C69.8616 18.1066 71.1362 33.0506 62.6402 41.536C54.2296 49.9413 31.4082 52.528 25.9149 25.0346Z" fill="#4EDE79"/>
<path d="M94.9653 37.296C90.6347 37.04 86.8747 35.3226 84.3733 32.4586C77.248 24.304 79.6053 13.1626 85.8773 7.51464C96.4533 -2.00003 109.392 -0.309363 119.787 1.0613C122.981 1.4773 123.392 4.31464 121.787 5.7653C116.763 10.288 115.568 15.4026 114.416 20.3466C113.387 24.7573 112.325 29.3173 108.523 32.7413C104.88 36.016 99.6587 37.6213 94.9653 37.296ZM107.355 5.32797C101.061 5.32797 94.8053 6.6453 89.44 11.4826C85.0453 15.4346 83.3973 23.2373 88.384 28.944C89.9413 30.7253 92.3893 31.7973 95.28 31.968C98.8533 32.144 102.485 30.9866 104.949 28.768C107.509 26.464 108.267 23.2266 109.221 19.1253C110.155 15.1093 111.269 10.3466 114.597 5.7813C112.193 5.50164 109.775 5.35031 107.355 5.32797ZM18.6667 117.333H2.66667C1.95942 117.333 1.28115 117.052 0.781049 116.552C0.280952 116.052 0 115.374 0 114.667V66.6666C0 65.9594 0.280952 65.2811 0.781049 64.781C1.28115 64.2809 1.95942 64 2.66667 64C20.8053 64 30.3893 70.112 30.7893 70.3733C31.2547 70.678 31.6137 71.12 31.8163 71.6381C32.0189 72.1561 32.0552 72.7244 31.92 73.264L21.2533 115.323C21.1074 115.898 20.7737 116.408 20.3052 116.772C19.8367 117.136 19.2601 117.334 18.6667 117.333ZM5.33333 112H16.592L26.24 73.9733C23.2373 72.5386 16.1653 69.7813 5.33333 69.3813V112Z" fill="#131F18"/>
<path d="M69.3336 128C56.7469 128 32.4109 117.419 19.0189 111.104C18.6948 110.959 18.4028 110.751 18.1601 110.492C17.9174 110.233 17.7288 109.928 17.6055 109.595C17.4822 109.263 17.4266 108.908 17.4419 108.554C17.4573 108.199 17.5433 107.851 17.6949 107.53C17.8465 107.209 18.0607 106.922 18.3249 106.685C18.589 106.447 18.8979 106.265 19.2333 106.149C19.5687 106.033 19.924 105.985 20.2782 106.008C20.6325 106.031 20.9786 106.124 21.2962 106.283C31.7496 111.211 57.3496 122.667 69.3336 122.667C82.3042 122.667 112.88 107.429 121.675 102.901C120.288 101.088 117.424 98.6667 112 98.6667C107.078 98.6667 100.838 100.635 94.8002 102.544C88.3842 104.565 81.7442 106.667 76.0002 106.667C64.9922 106.667 50.3736 101.397 49.7549 101.173C49.0901 100.931 48.5486 100.435 48.2495 99.7943C47.9505 99.1532 47.9183 98.4195 48.1602 97.7547C48.4021 97.0899 48.8982 96.5484 49.5393 96.2493C50.1804 95.9503 50.9141 95.9181 51.5789 96.16C51.7176 96.2133 65.9362 101.333 76.0002 101.333C80.9229 101.333 87.1629 99.3653 93.2002 97.456C99.6162 95.4347 106.256 93.3333 112 93.3333C124.443 93.3333 127.728 102.757 127.862 103.157C128.062 103.755 128.044 104.405 127.81 104.991C127.577 105.577 127.143 106.061 126.587 106.357C124.928 107.232 85.8082 128 69.3336 128Z" fill="#131F18"/>
<path d="M87.9999 104.48C87.2926 104.48 86.6144 104.199 86.1143 103.699C85.6142 103.199 85.3332 102.521 85.3332 101.813V99.1466C85.3461 97.355 84.749 95.6123 83.6402 94.205C82.5314 92.7976 80.9768 91.8094 79.2319 91.4027L27.7439 78.9706C27.4031 78.8887 27.0819 78.7404 26.7984 78.5343C26.515 78.3282 26.2749 78.0683 26.0919 77.7695C25.7224 77.1658 25.6077 76.4401 25.7732 75.752C25.9387 75.0638 26.3708 74.4696 26.9744 74.1C27.2733 73.917 27.6053 73.7947 27.9514 73.74C28.2976 73.6853 28.6511 73.6994 28.9919 73.7813L80.4585 86.208C83.3745 86.8885 85.9728 88.5395 87.8275 90.8903C89.6822 93.2412 90.6833 96.1523 90.6665 99.1466V101.813C90.6665 102.521 90.3856 103.199 89.8855 103.699C89.3854 104.199 88.7071 104.48 87.9999 104.48ZM98.2825 25.2906C97.9172 24.6857 97.3272 24.2501 96.6415 24.0792C95.9558 23.9083 95.2304 24.016 94.6239 24.3786C80.9065 32.64 74.8479 43.1733 72.1599 50.9386C65.5145 35.2213 52.4745 23.9253 51.8132 23.36C51.5471 23.1324 51.2387 22.9594 50.9057 22.8509C50.5727 22.7425 50.2216 22.7007 49.8725 22.7279C49.5233 22.7552 49.1829 22.8509 48.8708 23.0097C48.5586 23.1685 48.2808 23.3872 48.0532 23.6533C47.8256 23.9195 47.6526 24.2278 47.5442 24.5608C47.4357 24.8938 47.3939 25.2449 47.4212 25.5941C47.4484 25.9432 47.5441 26.2836 47.7029 26.5957C47.8617 26.9079 48.0804 27.1857 48.3465 27.4133C48.5332 27.568 66.5599 43.1786 70.0692 62.1333C70.6452 65.264 75.3279 64.8 75.3599 61.6586C75.3652 60.864 75.7865 41.9466 97.3705 28.9493C97.6717 28.7699 97.9343 28.5327 98.1433 28.2513C98.3524 27.97 98.5036 27.65 98.5884 27.3099C98.6732 26.9698 98.6898 26.6163 98.6373 26.2697C98.5848 25.9231 98.4642 25.5904 98.2825 25.2906Z" fill="#131F18"/>
</g>
<defs>
<clipPath id="clip0_3082_3975">
<rect width="128" height="128" fill="white"/>
</clipPath>
</defs>
</svg>
