<svg width="100" height="100" viewBox="0 0 100 100" fill="none" xmlns="http://www.w3.org/2000/svg">
<g clip-path="url(#clip0_3021_636)">
<path d="M81.3958 13.0084L74.4958 6.10008C72.5653 4.15972 70.2691 2.62149 67.7401 1.57443C65.2112 0.527372 62.4996 -0.0077333 59.7625 8.44393e-05H33.3333C27.81 0.00670051 22.5148 2.20376 18.6093 6.10933C14.7037 10.0149 12.5066 15.3101 12.5 20.8334V79.1668C12.5066 84.6901 14.7037 89.9853 18.6093 93.8908C22.5148 97.7964 27.81 99.9935 33.3333 100H66.6667C72.19 99.9935 77.4852 97.7964 81.3908 93.8908C85.2963 89.9853 87.4934 84.6901 87.5 79.1668V27.7376C87.5067 25.0009 86.9707 22.2899 85.9229 19.7617C84.8752 17.2335 83.3365 14.9381 81.3958 13.0084ZM75.5042 18.9001C76.0952 19.4889 76.6243 20.1367 77.0833 20.8334H66.6667V10.4168C67.3622 10.8806 68.0111 11.4109 68.6042 12.0001L75.5042 18.9001ZM79.1667 79.1668C79.1667 82.482 77.8497 85.6614 75.5055 88.0056C73.1613 90.3498 69.9819 91.6668 66.6667 91.6668H33.3333C30.0181 91.6668 26.8387 90.3498 24.4945 88.0056C22.1503 85.6614 20.8333 82.482 20.8333 79.1668V20.8334C20.8333 17.5182 22.1503 14.3388 24.4945 11.9946C26.8387 9.65038 30.0181 8.33342 33.3333 8.33342H58.3333V20.8334C58.3333 23.0436 59.2113 25.1632 60.7741 26.726C62.3369 28.2888 64.4565 29.1668 66.6667 29.1668H79.1667V79.1668ZM66.6667 37.5001C67.7717 37.5001 68.8316 37.9391 69.613 38.7205C70.3944 39.5019 70.8333 40.5617 70.8333 41.6668C70.8333 42.7718 70.3944 43.8316 69.613 44.613C68.8316 45.3944 67.7717 45.8334 66.6667 45.8334H33.3333C32.2283 45.8334 31.1685 45.3944 30.3871 44.613C29.6057 43.8316 29.1667 42.7718 29.1667 41.6668C29.1667 40.5617 29.6057 39.5019 30.3871 38.7205C31.1685 37.9391 32.2283 37.5001 33.3333 37.5001H66.6667ZM70.8333 58.3334C70.8333 59.4385 70.3944 60.4983 69.613 61.2797C68.8316 62.0611 67.7717 62.5001 66.6667 62.5001H33.3333C32.2283 62.5001 31.1685 62.0611 30.3871 61.2797C29.6057 60.4983 29.1667 59.4385 29.1667 58.3334C29.1667 57.2284 29.6057 56.1685 30.3871 55.3871C31.1685 54.6057 32.2283 54.1668 33.3333 54.1668H66.6667C67.7717 54.1668 68.8316 54.6057 69.613 55.3871C70.3944 56.1685 70.8333 57.2284 70.8333 58.3334ZM70.0333 72.5543C70.681 73.4453 70.9495 74.5566 70.7801 75.645C70.6106 76.7335 70.0171 77.7106 69.1292 78.3626C64.9075 81.3708 59.9075 83.0968 54.7292 83.3334C51.7037 83.3188 48.7701 82.2921 46.3958 80.4168C45.0292 79.4793 44.5083 79.1668 43.4792 79.1668C40.6934 79.5978 38.0651 80.737 35.8458 82.4751C34.9656 83.1026 33.876 83.3634 32.8071 83.2025C31.7381 83.0416 30.7735 82.4716 30.117 81.6128C29.4605 80.7541 29.1634 79.6738 29.2885 78.6C29.4136 77.5263 29.9511 76.5433 30.7875 75.8584C34.4591 73.0082 38.8678 71.2649 43.4958 70.8334C46.2714 70.8778 48.9547 71.8371 51.1292 73.5626C52.1204 74.4541 53.3965 74.9637 54.7292 75.0001C58.1362 74.7449 61.4124 73.5808 64.2167 71.6293C65.1108 70.9811 66.2258 70.7145 67.3164 70.8879C68.4071 71.0613 69.3843 71.6607 70.0333 72.5543Z" fill="#4EDE79"/>
</g>
<defs>
<clipPath id="clip0_3021_636">
<rect width="100" height="100" fill="white"/>
</clipPath>
</defs>
</svg>
