<svg width="150" height="150" viewBox="0 0 150 150" fill="none" xmlns="http://www.w3.org/2000/svg">
<rect width="150" height="150" rx="75" fill="#DCFFE6"/>
<path d="M36.7764 47.5093C36.7764 44.944 37.6773 42.8276 39.4791 41.1601C41.2808 39.4926 43.6232 38.6589 46.5061 38.6589C49.3375 38.6589 51.6283 39.4798 53.3787 41.1217C55.1805 42.8148 56.0814 45.0209 56.0814 47.7402C56.0814 50.2029 55.2063 52.2552 53.4559 53.897C51.6541 55.5901 49.286 56.4367 46.3517 56.4367H46.2744C43.443 56.4367 41.1522 55.5901 39.4018 53.897C37.6515 52.2039 36.7764 50.0747 36.7764 47.5093ZM37.7802 114.849V63.4401H54.9231V114.849H37.7802ZM64.4212 114.849H81.564V86.1433C81.564 84.3475 81.77 82.9622 82.1818 81.9874C82.9025 80.243 83.9964 78.7679 85.4636 77.5622C86.9308 76.3565 88.7712 75.7537 90.9849 75.7537C96.7507 75.7537 99.6335 79.6273 99.6335 87.3746V114.849H116.776V85.3737C116.776 77.7803 114.975 72.0211 111.371 68.0962C107.767 64.1712 103.005 62.2087 97.0852 62.2087C90.4443 62.2087 85.2706 65.0562 81.564 70.7513V70.9052H81.4868L81.564 70.7513V63.4401H64.4212C64.5241 65.0819 64.5756 70.1869 64.5756 78.7551C64.5756 87.3233 64.5241 99.3547 64.4212 114.849Z" fill="#4EDE79"/>
</svg>
