<svg width="167" height="23" viewBox="0 0 167 23" fill="none" xmlns="http://www.w3.org/2000/svg">
<path d="M2.20023 22V18.88H8.05023C9.15023 18.88 10.0202 18.61 10.6602 18.07C11.3002 17.53 11.6202 16.8 11.6202 15.88C11.6202 14.88 11.2602 14.1 10.5402 13.54C9.84023 12.96 8.85023 12.68 7.57023 12.7H2.20023V9.94L5.83023 10C7.73023 10 9.38023 10.22 10.7802 10.66C12.1802 11.08 13.2602 11.74 14.0202 12.64C14.7802 13.54 15.1602 14.7 15.1602 16.12C15.1602 17.36 14.8802 18.42 14.3202 19.3C13.7602 20.18 12.9702 20.85 11.9502 21.31C10.9302 21.77 9.72024 22 8.32023 22H2.20023ZM0.490234 22V1H3.91023V22H0.490234ZM2.11023 12.85V9.82H7.72023C8.72023 9.82 9.50023 9.56 10.0602 9.04C10.6402 8.5 10.9302 7.76 10.9302 6.82C10.9302 5.86 10.6002 5.12 9.94024 4.6C9.30024 4.08 8.40024 3.83 7.24024 3.85H2.11023V1.03L7.42023 0.970001C8.86023 0.970001 10.1002 1.2 11.1402 1.66C12.2002 2.1 13.0202 2.76 13.6002 3.64C14.1802 4.5 14.4702 5.58 14.4702 6.88C14.4702 7.98 14.1302 8.97 13.4502 9.85C12.7902 10.71 11.8402 11.39 10.6002 11.89C9.38024 12.39 7.94023 12.64 6.28023 12.64L2.11023 12.85Z" fill="#192D22"/>
<path d="M24.9194 22.36C23.4594 22.36 22.1594 22.03 21.0194 21.37C19.8994 20.69 19.0094 19.76 18.3494 18.58C17.7094 17.4 17.3894 16.04 17.3894 14.5C17.3894 12.96 17.7194 11.6 18.3794 10.42C19.0394 9.24 19.9394 8.32 21.0794 7.66C22.2394 6.98 23.5594 6.64 25.0394 6.64C26.3794 6.64 27.5794 6.99 28.6394 7.69C29.7194 8.37 30.5794 9.36 31.2194 10.66C31.8594 11.96 32.1794 13.51 32.1794 15.31H28.7894C28.7894 14.01 28.6294 12.94 28.3094 12.1C28.0094 11.26 27.5694 10.64 26.9894 10.24C26.4294 9.82 25.7394 9.61 24.9194 9.61C24.0594 9.61 23.3194 9.8 22.6994 10.18C22.0794 10.56 21.6094 11.12 21.2894 11.86C20.9694 12.58 20.8094 13.49 20.8094 14.59C20.8094 15.57 20.9994 16.41 21.3794 17.11C21.7794 17.81 22.3094 18.35 22.9694 18.73C23.6494 19.09 24.3994 19.27 25.2194 19.27C26.1194 19.27 26.8594 19.07 27.4394 18.67C28.0194 18.25 28.4694 17.72 28.7894 17.08L31.8794 18.4C31.4594 19.2 30.9194 19.9 30.2594 20.5C29.6194 21.1 28.8494 21.56 27.9494 21.88C27.0694 22.2 26.0594 22.36 24.9194 22.36ZM19.6094 15.31V12.64H30.4094V15.31H19.6094Z" fill="#192D22"/>
<path d="M40.7228 22.36C39.1428 22.36 37.9328 21.97 37.0928 21.19C36.2728 20.39 35.8628 19.25 35.8628 17.77V2.32H39.1928V17.14C39.1928 17.84 39.3528 18.37 39.6728 18.73C40.0128 19.09 40.5028 19.27 41.1428 19.27C41.3428 19.27 41.5628 19.23 41.8028 19.15C42.0428 19.07 42.3128 18.92 42.6128 18.7L43.8428 21.25C43.3228 21.61 42.8028 21.88 42.2828 22.06C41.7628 22.26 41.2428 22.36 40.7228 22.36ZM33.3728 9.88V7H43.2428V9.88H33.3728Z" fill="#192D22"/>
<path d="M52.5002 22.36C50.9202 22.36 49.7102 21.97 48.8702 21.19C48.0502 20.39 47.6402 19.25 47.6402 17.77V2.32H50.9702V17.14C50.9702 17.84 51.1302 18.37 51.4502 18.73C51.7902 19.09 52.2802 19.27 52.9202 19.27C53.1202 19.27 53.3402 19.23 53.5802 19.15C53.8202 19.07 54.0902 18.92 54.3902 18.7L55.6202 21.25C55.1002 21.61 54.5802 21.88 54.0602 22.06C53.5402 22.26 53.0202 22.36 52.5002 22.36ZM45.1502 9.88V7H55.0202V9.88H45.1502Z" fill="#192D22"/>
<path d="M64.8217 22.36C63.3617 22.36 62.0617 22.03 60.9217 21.37C59.8017 20.69 58.9117 19.76 58.2517 18.58C57.6117 17.4 57.2917 16.04 57.2917 14.5C57.2917 12.96 57.6217 11.6 58.2817 10.42C58.9417 9.24 59.8417 8.32 60.9817 7.66C62.1417 6.98 63.4617 6.64 64.9417 6.64C66.2817 6.64 67.4817 6.99 68.5417 7.69C69.6217 8.37 70.4817 9.36 71.1217 10.66C71.7617 11.96 72.0817 13.51 72.0817 15.31H68.6917C68.6917 14.01 68.5317 12.94 68.2117 12.1C67.9117 11.26 67.4717 10.64 66.8917 10.24C66.3317 9.82 65.6417 9.61 64.8217 9.61C63.9617 9.61 63.2217 9.8 62.6017 10.18C61.9817 10.56 61.5117 11.12 61.1917 11.86C60.8717 12.58 60.7117 13.49 60.7117 14.59C60.7117 15.57 60.9017 16.41 61.2817 17.11C61.6817 17.81 62.2117 18.35 62.8717 18.73C63.5517 19.09 64.3017 19.27 65.1217 19.27C66.0217 19.27 66.7617 19.07 67.3417 18.67C67.9217 18.25 68.3717 17.72 68.6917 17.08L71.7817 18.4C71.3617 19.2 70.8217 19.9 70.1617 20.5C69.5217 21.1 68.7517 21.56 67.8517 21.88C66.9717 22.2 65.9617 22.36 64.8217 22.36ZM59.5117 15.31V12.64H70.3117V15.31H59.5117Z" fill="#192D22"/>
<path d="M76.8752 14.02C76.8752 12.4 77.1852 11.07 77.8052 10.03C78.4252 8.99 79.2252 8.22 80.2052 7.72C81.2052 7.2 82.2452 6.94 83.3252 6.94V10.15C82.4052 10.15 81.5352 10.28 80.7152 10.54C79.9152 10.78 79.2652 11.18 78.7652 11.74C78.2652 12.3 78.0152 13.04 78.0152 13.96L76.8752 14.02ZM74.6552 22V7H78.0152V22H74.6552Z" fill="#192D22"/>
<path d="M90.45 22V2.74H93.93V22H90.45ZM84 4.18V1H100.38V4.18H84Z" fill="#4EDE79"/>
<path d="M109.794 22L109.644 19.18V14.29C109.644 13.27 109.534 12.42 109.314 11.74C109.094 11.06 108.744 10.54 108.264 10.18C107.804 9.82 107.194 9.64 106.434 9.64C105.734 9.64 105.114 9.79 104.574 10.09C104.034 10.39 103.584 10.85 103.224 11.47L100.164 10.39C100.504 9.73 100.944 9.11 101.484 8.53C102.024 7.95 102.704 7.49 103.524 7.15C104.364 6.81 105.354 6.64 106.494 6.64C107.954 6.64 109.164 6.91 110.124 7.45C111.104 7.99 111.834 8.79 112.314 9.85C112.794 10.91 113.034 12.22 113.034 13.78L112.944 22H109.794ZM105.534 22.36C103.734 22.36 102.334 21.96 101.334 21.16C100.354 20.36 99.8644 19.23 99.8644 17.77C99.8644 16.21 100.384 15.02 101.424 14.2C102.484 13.38 103.954 12.97 105.834 12.97H109.854V15.55H106.914C105.574 15.55 104.634 15.74 104.094 16.12C103.554 16.48 103.284 17 103.284 17.68C103.284 18.26 103.514 18.72 103.974 19.06C104.454 19.38 105.114 19.54 105.954 19.54C106.694 19.54 107.334 19.37 107.874 19.03C108.434 18.67 108.864 18.21 109.164 17.65C109.484 17.07 109.644 16.45 109.644 15.79H110.874C110.874 17.83 110.434 19.44 109.554 20.62C108.694 21.78 107.354 22.36 105.534 22.36Z" fill="#4EDE79"/>
<path d="M116.437 22V1H119.797V22H116.437Z" fill="#4EDE79"/>
<path d="M130.217 22.36C128.757 22.36 127.457 22.03 126.317 21.37C125.197 20.69 124.307 19.76 123.647 18.58C123.007 17.4 122.687 16.04 122.687 14.5C122.687 12.96 123.017 11.6 123.677 10.42C124.337 9.24 125.237 8.32 126.377 7.66C127.537 6.98 128.857 6.64 130.337 6.64C131.677 6.64 132.877 6.99 133.937 7.69C135.017 8.37 135.877 9.36 136.517 10.66C137.157 11.96 137.477 13.51 137.477 15.31H134.087C134.087 14.01 133.927 12.94 133.607 12.1C133.307 11.26 132.867 10.64 132.287 10.24C131.727 9.82 131.037 9.61 130.217 9.61C129.357 9.61 128.617 9.8 127.997 10.18C127.377 10.56 126.907 11.12 126.587 11.86C126.267 12.58 126.107 13.49 126.107 14.59C126.107 15.57 126.297 16.41 126.677 17.11C127.077 17.81 127.607 18.35 128.267 18.73C128.947 19.09 129.697 19.27 130.517 19.27C131.417 19.27 132.157 19.07 132.737 18.67C133.317 18.25 133.767 17.72 134.087 17.08L137.177 18.4C136.757 19.2 136.217 19.9 135.557 20.5C134.917 21.1 134.147 21.56 133.247 21.88C132.367 22.2 131.357 22.36 130.217 22.36ZM124.907 15.31V12.64H135.707V15.31H124.907Z" fill="#4EDE79"/>
<path d="M140.05 22V7H143.2L143.41 9.76V22H140.05ZM150.22 22V14.32L153.58 13.42V22H150.22ZM150.22 14.32C150.22 13.12 150.08 12.2 149.8 11.56C149.54 10.9 149.16 10.44 148.66 10.18C148.18 9.92 147.61 9.79 146.95 9.79C145.83 9.77 144.96 10.14 144.34 10.9C143.72 11.66 143.41 12.75 143.41 14.17H142.15C142.15 12.59 142.38 11.24 142.84 10.12C143.3 8.98 143.96 8.12 144.82 7.54C145.68 6.94 146.7 6.64 147.88 6.64C149.7 6.64 151.1 7.2 152.08 8.32C153.08 9.42 153.58 11.12 153.58 13.42L150.22 14.32Z" fill="#4EDE79"/>
<path d="M162.954 22.36C161.374 22.36 160.164 21.97 159.324 21.19C158.504 20.39 158.094 19.25 158.094 17.77V2.32H161.424V17.14C161.424 17.84 161.584 18.37 161.904 18.73C162.244 19.09 162.734 19.27 163.374 19.27C163.574 19.27 163.794 19.23 164.034 19.15C164.274 19.07 164.544 18.92 164.844 18.7L166.074 21.25C165.554 21.61 165.034 21.88 164.514 22.06C163.994 22.26 163.474 22.36 162.954 22.36ZM155.604 9.88V7H165.474V9.88H155.604Z" fill="#4EDE79"/>
</svg>
