<svg width="128" height="128" viewBox="0 0 128 128" fill="none" xmlns="http://www.w3.org/2000/svg">
<path d="M78.9303 13.056C103.474 23.0674 119.237 65.952 93.664 91.1954C68.0914 116.439 -4.18743 98.1257 6.02057 63.0857C16.2286 28.0457 38.0023 -3.63886 78.9303 13.056Z" fill="#FFD2E8"/>
<path d="M112.315 113.915C106.688 119.726 80.1326 128.055 56.9006 124.032C33.6686 120.009 38.1806 105.403 38.6789 99.4057C39.1772 93.408 53.4218 84.736 77.1018 83.3783C100.782 82.0206 110.958 90.528 114.866 95.0217C118.779 99.5154 116.686 109.408 112.315 113.915Z" fill="#FF3838"/>
<path d="M107.428 110.857C106.822 110.857 106.241 110.616 105.812 110.188C105.383 109.759 105.143 109.178 105.143 108.571V98.2857C105.143 97.6795 105.383 97.0981 105.812 96.6695C106.241 96.2408 106.822 96 107.428 96C108.035 96 108.616 96.2408 109.045 96.6695C109.473 97.0981 109.714 97.6795 109.714 98.2857V108.571C109.714 109.178 109.473 109.759 109.045 110.188C108.616 110.616 108.035 110.857 107.428 110.857Z" fill="black"/>
<path d="M107.429 110.857C107.074 110.856 106.723 110.773 106.405 110.615L97.262 106.043C96.7195 105.772 96.3068 105.297 96.1147 104.722C95.9227 104.147 95.967 103.519 96.238 102.976C96.509 102.433 96.9844 102.021 97.5597 101.829C98.1349 101.637 98.7629 101.681 99.3055 101.952L107.424 106.016L115.543 101.952C116.086 101.681 116.714 101.637 117.289 101.829C117.574 101.924 117.837 102.074 118.064 102.271C118.291 102.468 118.476 102.707 118.611 102.976C118.745 103.245 118.825 103.537 118.846 103.837C118.867 104.136 118.829 104.437 118.734 104.722C118.639 105.007 118.489 105.27 118.292 105.497C118.095 105.723 117.855 105.909 117.587 106.043L108.444 110.615C108.129 110.774 107.781 110.857 107.429 110.857Z" fill="black"/>
<path d="M114.285 118.857C113.955 118.857 113.629 118.785 113.329 118.647C113.03 118.509 112.763 118.308 112.548 118.057L107.428 112.082L102.308 118.057C102.113 118.285 101.875 118.473 101.607 118.609C101.34 118.745 101.048 118.827 100.749 118.85C100.45 118.874 100.149 118.838 99.8632 118.745C99.5777 118.652 99.3134 118.504 99.0853 118.309C98.8572 118.113 98.6697 117.875 98.5336 117.608C98.3975 117.34 98.3155 117.048 98.2921 116.749C98.2688 116.45 98.3046 116.149 98.3975 115.864C98.4905 115.578 98.6388 115.314 98.8339 115.086L105.691 107.086C105.912 106.845 106.18 106.652 106.479 106.52C106.778 106.388 107.101 106.32 107.428 106.32C107.755 106.32 108.078 106.388 108.377 106.52C108.676 106.652 108.945 106.845 109.165 107.086L116.022 115.086C116.306 115.418 116.489 115.824 116.549 116.257C116.61 116.69 116.544 117.131 116.362 117.528C116.179 117.925 115.886 118.261 115.518 118.496C115.15 118.732 114.722 118.857 114.285 118.857ZM79.9996 110.857C79.3934 110.857 78.812 110.616 78.3833 110.188C77.9547 109.759 77.7139 109.178 77.7139 108.571V98.2857C77.7139 97.6795 77.9547 97.0981 78.3833 96.6695C78.812 96.2408 79.3934 96 79.9996 96C80.6058 96 81.1872 96.2408 81.6158 96.6695C82.0445 97.0981 82.2853 97.6795 82.2853 98.2857V108.571C82.2853 109.178 82.0445 109.759 81.6158 110.188C81.1872 110.616 80.6058 110.857 79.9996 110.857Z" fill="black"/>
<path d="M80.0002 110.857C79.6448 110.856 79.2945 110.773 78.9762 110.615L69.8333 106.043C69.2908 105.772 68.8781 105.297 68.686 104.722C68.494 104.147 68.5383 103.519 68.8093 102.976C69.0803 102.433 69.5557 102.021 70.131 101.829C70.7062 101.637 71.3342 101.681 71.8767 101.952L79.9956 106.016L88.1145 101.952C88.657 101.681 89.285 101.637 89.8603 101.829C90.1451 101.924 90.4084 102.074 90.6352 102.271C90.8619 102.468 91.0477 102.707 91.1819 102.976C91.3161 103.245 91.396 103.537 91.4172 103.837C91.4383 104.136 91.4003 104.437 91.3052 104.722C91.2101 105.007 91.0598 105.27 90.863 105.497C90.6661 105.723 90.4265 105.909 90.1579 106.043L81.015 110.615C80.7003 110.774 80.3527 110.857 80.0002 110.857Z" fill="black"/>
<path d="M86.8576 118.857C86.5275 118.857 86.2015 118.785 85.9017 118.647C85.6019 118.509 85.3354 118.308 85.1204 118.057L80.0004 112.082L74.8804 118.057C74.4864 118.518 73.9255 118.803 73.3211 118.85C72.7167 118.897 72.1183 118.703 71.6576 118.309C71.1968 117.915 70.9115 117.354 70.8644 116.749C70.8172 116.145 71.0121 115.546 71.4061 115.086L78.2633 107.086C78.4839 106.845 78.7522 106.652 79.0513 106.52C79.3504 106.388 79.6736 106.32 80.0004 106.32C80.3272 106.32 80.6505 106.388 80.9495 106.52C81.2486 106.652 81.517 106.845 81.7376 107.086L88.5947 115.086C88.8787 115.418 89.0616 115.824 89.1217 116.257C89.1818 116.69 89.1166 117.131 88.9338 117.528C88.751 117.925 88.4583 118.261 88.0903 118.496C87.7223 118.732 87.2945 118.857 86.8576 118.857ZM52.5718 110.857C51.9656 110.857 51.3843 110.616 50.9556 110.188C50.5269 109.759 50.2861 109.178 50.2861 108.571V98.2857C50.2861 97.6795 50.5269 97.0981 50.9556 96.6695C51.3843 96.2408 51.9656 96 52.5718 96C53.1781 96 53.7594 96.2408 54.1881 96.6695C54.6167 97.0981 54.8576 97.6795 54.8576 98.2857V108.571C54.8576 109.178 54.6167 109.759 54.1881 110.188C53.7594 110.616 53.1781 110.857 52.5718 110.857Z" fill="black"/>
<path d="M52.5715 110.857C52.2161 110.856 51.8658 110.773 51.5475 110.615L42.4046 106.043C41.862 105.772 41.4494 105.297 41.2573 104.722C41.0653 104.147 41.1096 103.519 41.3806 102.976C41.6516 102.433 42.127 102.021 42.7022 101.829C43.2775 101.637 43.9055 101.681 44.448 101.952L52.5669 106.016L60.6857 101.952C60.9544 101.818 61.2468 101.738 61.5464 101.717C61.8459 101.696 62.1467 101.734 62.4315 101.829C62.7164 101.924 62.9797 102.074 63.2065 102.271C63.4332 102.468 63.619 102.707 63.7532 102.976C63.8874 103.245 63.9673 103.537 63.9885 103.837C64.0096 104.136 63.9716 104.437 63.8765 104.722C63.7814 105.007 63.6311 105.27 63.4343 105.497C63.2374 105.723 62.9978 105.909 62.7292 106.043L53.5863 110.615C53.2716 110.774 52.924 110.857 52.5715 110.857Z" fill="black"/>
<path d="M59.4283 118.857C59.0982 118.857 58.7722 118.785 58.4724 118.647C58.1726 118.509 57.9061 118.308 57.6912 118.057L52.5712 112.082L47.4512 118.057C47.256 118.285 47.0179 118.473 46.7504 118.609C46.4828 118.745 46.1911 118.827 45.8918 118.85C45.5925 118.874 45.2916 118.838 45.0062 118.745C44.7207 118.652 44.4564 118.504 44.2283 118.309C44.0002 118.113 43.8127 117.875 43.6766 117.608C43.5405 117.34 43.4585 117.048 43.4351 116.749C43.4118 116.45 43.4476 116.149 43.5405 115.864C43.6335 115.578 43.7818 115.314 43.9769 115.086L50.834 107.086C51.0546 106.845 51.323 106.652 51.622 106.52C51.9211 106.388 52.2443 106.32 52.5712 106.32C52.898 106.32 53.2212 106.388 53.5203 106.52C53.8193 106.652 54.0877 106.845 54.3083 107.086L61.1654 115.086C61.4495 115.418 61.6323 115.824 61.6924 116.257C61.7525 116.69 61.6873 117.131 61.5045 117.528C61.3217 117.925 61.029 118.261 60.661 118.496C60.293 118.732 59.8652 118.857 59.4283 118.857ZM29.714 106.103C29.1671 106.103 28.6383 105.906 28.2237 105.55C22.2391 100.406 17.4359 94.0311 14.1427 86.86C10.8494 79.6889 9.14386 71.8911 9.14258 64C9.14258 33.7509 33.7506 9.14285 63.9997 9.14285C94.2489 9.14285 118.857 33.7509 118.857 64C118.857 71.8171 117.266 79.328 114.13 86.3269C113.618 87.4789 112.26 88 111.113 87.4789C110.839 87.3567 110.592 87.1816 110.385 86.9638C110.179 86.7459 110.018 86.4895 109.911 86.2092C109.804 85.929 109.753 85.6304 109.762 85.3305C109.77 85.0306 109.838 84.7354 109.961 84.4617C112.832 78.048 114.285 71.168 114.285 64C114.285 36.2743 91.7254 13.7143 63.9997 13.7143C36.274 13.7143 13.714 36.2743 13.714 64C13.714 78.6286 20.0912 92.5074 31.2043 102.085C31.5555 102.39 31.8053 102.795 31.9204 103.246C32.0355 103.697 32.0104 104.173 31.8486 104.609C31.6867 105.045 31.3957 105.422 31.0144 105.689C30.6331 105.956 30.1794 106.1 29.714 106.103Z" fill="black"/>
<path d="M23.4056 86.8571H15.5884C14.9822 86.8571 14.4009 86.6163 13.9722 86.1877C13.5435 85.759 13.3027 85.1776 13.3027 84.5714C13.3027 83.9652 13.5435 83.3838 13.9722 82.9552C14.4009 82.5265 14.9822 82.2857 15.5884 82.2857H23.4056C26.3222 82.2857 29.0787 81.1566 31.177 79.0994C33.227 77.0492 34.3921 74.2774 34.4227 71.3783C34.4577 67.681 35.749 64.1054 38.0845 61.2389C40.5987 58.272 43.7987 56.3474 47.369 55.6343C50.8677 54.8976 54.005 52.9761 56.2512 50.1944C58.4974 47.4127 59.7149 43.9411 59.6982 40.3657V35.5657C59.7064 31.4664 58.5799 27.4448 56.4433 23.9463C54.3068 20.4477 51.2436 17.6089 47.593 15.744C47.0541 15.467 46.6473 14.9872 46.4621 14.4102C46.277 13.8332 46.3286 13.2063 46.6056 12.6674C46.8826 12.1285 47.3624 11.7217 47.9394 11.5365C48.5163 11.3514 49.1432 11.403 49.6822 11.68C54.082 13.9263 57.7739 17.347 60.3487 21.563C62.9234 25.779 64.2806 30.6257 64.2696 35.5657V40.3657C64.2911 44.993 62.7129 49.4856 59.8021 53.0828C56.8914 56.68 52.827 59.1607 48.297 60.1051C45.6717 60.6519 43.312 62.0793 41.609 64.1509C39.9402 66.2149 39.02 68.7835 38.9987 71.4377C38.9532 75.5377 37.3002 79.456 34.3953 82.3497C31.4685 85.2407 27.5195 86.8604 23.4056 86.8571ZM56.3199 87.4057C55.9743 87.4056 55.6332 87.3272 55.3223 87.1763C55.0113 87.0253 54.7387 86.8059 54.5248 86.5343C54.311 86.2628 54.1615 85.9464 54.0876 85.6088C54.0137 85.2712 54.0173 84.9212 54.0982 84.5851C55.1108 80.4615 57.2287 76.692 60.2239 73.6823C66.153 67.7531 75.5565 65.7691 83.5336 68.9051L86.1576 69.9611C88.0515 70.6977 90.139 70.771 92.08 70.1691C94.0209 69.5672 95.7007 68.3257 96.8456 66.6469C99.6387 62.3726 105.687 60.864 110.395 63.5566L117.431 67.7897C117.925 68.1145 118.275 68.6182 118.406 69.195C118.538 69.7719 118.441 70.3773 118.136 70.8843C117.831 71.3914 117.342 71.7607 116.771 71.915C116.199 72.0693 115.591 71.9966 115.072 71.712L108.082 67.5063C105.55 66.0526 102.185 66.8343 100.658 69.1749C98.9272 71.7212 96.384 73.6054 93.4438 74.5196C90.5037 75.4338 87.3404 75.3239 84.4707 74.208L81.8467 73.1566C75.5747 70.688 68.1279 72.2469 63.4696 76.9006C61.0659 79.3153 59.364 82.3382 58.5462 85.6457C58.4277 86.147 58.1433 86.5936 57.7393 86.9131C57.3352 87.2325 56.835 87.4061 56.3199 87.4057ZM97.737 53.6686C94.4973 53.676 91.3113 52.8409 88.4918 51.2452C85.6723 49.6495 83.3162 47.3481 81.6547 44.5669C78.9161 40.0106 77.2501 34.8909 76.7828 29.5955C76.3155 24.3001 77.0592 18.9678 78.9576 14.0023L79.1542 13.5086C79.3894 12.962 79.8284 12.5287 80.378 12.3007C80.9277 12.0727 81.5445 12.0681 82.0975 12.2877C82.6505 12.5074 83.0961 12.934 83.3395 13.477C83.5829 14.02 83.605 14.6364 83.401 15.1954L83.2182 15.6571C81.5709 19.972 80.9264 24.6049 81.3335 29.2056C81.7406 33.8062 83.1885 38.254 85.5679 42.2126C88.489 47.0263 93.897 49.7554 99.4833 48.9829L114.235 47.1954C115.465 46.9989 116.626 47.9314 116.782 49.1886C116.937 50.4457 116.041 51.5794 114.788 51.7349L100.068 53.5177C99.2955 53.6192 98.5166 53.6696 97.737 53.6686Z" fill="black"/>
</svg>
