<svg width="150" height="150" viewBox="0 0 150 150" fill="none" xmlns="http://www.w3.org/2000/svg">
<rect width="150" height="150" rx="75" fill="#DCFFE6"/>
<g clip-path="url(#clip0_3050_4049)">
<path d="M112.063 37.94C110.868 36.7304 109.381 35.8495 107.746 35.3824C106.111 34.9152 104.384 34.8777 102.73 35.2733L49.3965 46.5066C46.3251 46.9279 43.4323 48.1982 41.0439 50.1747C38.6554 52.1511 36.8662 54.7552 35.8778 57.6935C34.8893 60.6319 34.7409 63.7878 35.4491 66.806C36.1574 69.8242 37.6942 72.5847 39.8865 74.7766L45.6132 80.5C45.9232 80.8098 46.169 81.1778 46.3365 81.5827C46.5041 81.9877 46.5902 82.4217 46.5899 82.86V93.42C46.5972 94.9047 46.939 96.3688 47.5899 97.7033L47.5632 97.7266L47.6499 97.8133C48.6266 99.7771 50.2218 101.365 52.1899 102.333L52.2765 102.42L52.2999 102.393C53.6344 103.044 55.0984 103.386 56.5832 103.393H67.1432C68.0267 103.393 68.8744 103.743 69.4999 104.367L75.2232 110.09C76.7583 111.642 78.5854 112.875 80.5991 113.718C82.6129 114.56 84.7736 114.996 86.9565 115C88.7757 114.998 90.5825 114.701 92.3065 114.12C95.218 113.164 97.8044 111.413 99.774 109.066C101.744 106.718 103.018 103.867 103.453 100.833L114.703 47.3833C115.119 45.7154 115.095 43.968 114.632 42.3125C114.169 40.657 113.284 39.1502 112.063 37.94ZM50.3332 75.7933L44.6032 70.07C43.2689 68.7678 42.3338 67.1121 41.9075 65.2972C41.4812 63.4822 41.5815 61.5833 42.1965 59.8233C42.7929 58.0177 43.8952 56.4214 45.3725 55.2242C46.8498 54.027 48.6399 53.2793 50.5299 53.07L103.333 41.9533L53.2499 92.0433V82.86C53.2549 81.5478 52.9997 80.2476 52.4991 79.0346C51.9985 77.8216 51.2623 76.72 50.3332 75.7933ZM96.9032 99.6933C96.6473 101.534 95.8832 103.268 94.6969 104.699C93.5105 106.13 91.9488 107.202 90.187 107.794C88.4252 108.387 86.533 108.477 84.723 108.054C82.9129 107.631 81.2566 106.712 79.9399 105.4L74.2065 99.6666C73.2811 98.7361 72.1803 97.9983 70.9679 97.496C69.7555 96.9936 68.4556 96.7367 67.1432 96.74H57.9599L108.05 46.6666L96.9032 99.6933Z" fill="#4EDE79"/>
</g>
<defs>
<clipPath id="clip0_3050_4049">
<rect width="80" height="80" fill="white" transform="translate(35 35)"/>
</clipPath>
</defs>
</svg>
